<?xml version="1.0" standalone="no"?>
<!DOCTYPE svg PUBLIC "-//W3C//DTD SVG 20010904//EN"
 "http://www.w3.org/TR/2001/REC-SVG-20010904/DTD/svg10.dtd">
<svg version="1.0" xmlns="http://www.w3.org/2000/svg"
 width="800.000000pt" height="800.000000pt" viewBox="0 0 800.000000 800.000000"
 preserveAspectRatio="xMidYMid meet">
<metadata>
Created by potrace 1.14, written by Peter Selinger 2001-2017
</metadata>
<g transform="translate(0.000000,800.000000) scale(0.100000,-0.100000)"
fill="#000000" stroke="none">
<path d="M3848 7365 c-2 -2 -32 -6 -68 -10 -76 -7 -135 -14 -170 -20 -14 -2
-45 -7 -70 -10 -25 -4 -61 -10 -80 -15 -19 -5 -46 -11 -60 -14 -30 -7 -111
-25 -125 -29 -5 -1 -16 -6 -22 -10 -7 -5 -13 -6 -13 -3 0 3 -19 -1 -41 -10
-23 -8 -51 -16 -63 -19 -31 -6 -243 -82 -281 -100 -18 -8 -35 -15 -38 -15 -10
0 -182 -81 -187 -88 -3 -4 -12 -8 -20 -10 -8 -2 -26 -11 -40 -20 -14 -9 -27
-17 -30 -17 -11 -2 -65 -30 -70 -35 -3 -4 -32 -22 -65 -40 -33 -19 -61 -37
-63 -42 -2 -4 -12 -8 -23 -8 -10 0 -19 -4 -19 -9 0 -5 -17 -19 -37 -32 -43
-25 -171 -117 -191 -136 -7 -7 -16 -13 -20 -13 -4 0 -27 -19 -52 -41 -25 -22
-74 -66 -109 -97 -106 -95 -307 -302 -294 -302 5 0 1 -5 -8 -10 -20 -12 -179
-214 -179 -228 0 -6 -4 -12 -9 -14 -8 -3 -121 -166 -121 -174 0 -3 -11 -23
-26 -45 -83 -132 -192 -358 -262 -544 -35 -91 -99 -292 -106 -330 -1 -5 -5
-19 -9 -30 -3 -11 -8 -31 -11 -45 -2 -14 -11 -54 -19 -90 -25 -110 -47 -252
-63 -410 -3 -30 -9 -71 -13 -90 -10 -47 -11 -427 0 -510 4 -36 11 -92 14 -125
4 -33 9 -69 12 -80 2 -11 6 -36 8 -55 3 -19 7 -46 10 -60 3 -14 7 -38 10 -55
11 -67 14 -81 24 -114 6 -19 9 -36 7 -39 -3 -2 2 -19 10 -38 8 -19 14 -37 14
-41 1 -22 93 -310 121 -378 7 -16 13 -32 13 -35 6 -35 158 -347 221 -455 20
-33 41 -70 47 -82 6 -13 15 -23 20 -23 4 0 8 -5 8 -10 0 -30 226 -335 348
-469 127 -139 287 -290 412 -388 91 -72 390 -275 390 -266 0 3 6 1 13 -5 39
-32 250 -137 397 -197 99 -41 337 -121 417 -140 10 -3 74 -18 143 -33 124 -29
168 -36 330 -56 168 -20 367 -26 489 -14 42 4 103 9 136 13 100 9 119 12 235
31 72 11 318 70 355 84 14 5 36 12 48 14 33 6 243 84 315 117 35 16 65 29 67
29 7 0 154 74 215 107 148 82 204 116 213 130 4 7 13 13 18 13 9 0 100 59 149
97 232 179 455 392 619 593 11 14 25 30 31 37 77 92 243 345 316 483 16 30 33
58 37 61 5 3 8 8 7 10 0 2 15 40 35 84 60 131 167 407 195 500 1 6 4 15 6 20
6 18 34 122 39 141 2 11 9 39 16 64 13 56 14 58 33 150 21 101 24 124 32 194
3 34 7 63 9 66 24 39 25 678 1 752 -3 7 -7 36 -10 63 -8 65 -15 109 -26 170
-6 28 -12 64 -14 80 -4 24 -27 131 -40 180 -7 29 -40 133 -47 150 -4 11 -13
38 -19 60 -6 22 -15 49 -20 60 -5 11 -26 63 -46 115 -33 88 -132 306 -154 340
-6 8 -24 42 -41 75 -28 53 -68 118 -168 270 -14 22 -29 45 -34 50 -4 6 -21 28
-37 50 -17 22 -37 49 -45 60 -9 11 -26 33 -38 50 -29 39 -197 225 -267 295
-48 47 -194 180 -225 203 -5 4 -21 17 -35 28 -33 28 -167 129 -204 154 -73 50
-173 115 -196 128 -14 8 -41 23 -60 34 -86 49 -171 93 -250 127 -47 21 -100
44 -118 53 -39 17 -190 73 -212 78 -8 2 -15 4 -15 5 0 1 -7 3 -15 5 -8 2 -55
15 -103 30 -122 36 -321 82 -387 89 -30 4 -68 9 -85 11 -76 13 -157 17 -377
20 -130 1 -238 1 -240 0z"/>
</g>
</svg>
